# File created by Blade
# Date/Time:  Wed Jan 21 14:28:11 2015
# Frame Rate: 120.000 fps
#------------------------------------------------------
:FULLY-SPECIFIED
:DEGREES
410
root 19.053763 35.434958 -21.400249 -170.468728 -2.756932 -178.074072
Spine -15.932306 -3.401769 1.609886
Head 4.203052 -0.649450 1.465439
LeftShoulder -21.425367 -11.528353 5.789340
LeftArm -45.264894 9.217449 -94.176049
LeftForeArm 7.568543 -0.000000 0.071018
LeftHand -6.253265 -0.000000 -35.455352
LeftHandThumb1 -26.253704 0.000000 33.147579
RightShoulder -23.076415 -21.475710 9.906714
RightArm -8.782576 -26.114441 84.829728
RightForeArm -34.161291 -0.000000 9.713563
RightHand 1.922869 0.000000 39.643986
RightHandThumb1 -24.326973 -0.000000 -32.862282
LeftUpLeg -1.116721 8.902726 3.134332
LeftLeg -6.694454 -0.000000 0.000000
LeftFoot -20.279206 27.467988 -11.244004
LeftToeBase 27.978539 -0.000000 -0.000000
RightUpLeg -2.666516 -12.773499 1.317033
RightLeg -3.470698 -0.000000 0.000000
RightFoot -20.371970 -21.609448 15.983799
RightToeBase 25.522006 -0.000000 -0.000000
411
root 19.057325 35.431533 -21.414975 -170.573756 -2.748603 -178.073590
Spine -16.036985 -3.453127 1.614707
Head 4.544693 -0.700172 1.496497
LeftShoulder -21.214943 -11.753036 5.492250
LeftArm -45.048684 9.559621 -94.501134
LeftForeArm 7.347410 -0.000000 0.157928
LeftHand -6.211579 0.000000 -35.186043
LeftHandThumb1 -26.253704 0.000000 33.147579
RightShoulder -22.855830 -21.390982 10.107424
RightArm -8.503235 -26.564993 84.659590
RightForeArm -33.683047 -0.000000 9.700407
RightHand 2.124190 -0.000000 39.149228
RightHandThumb1 -24.326973 -0.000000 -32.862282
LeftUpLeg -0.985062 8.908997 3.160545
LeftLeg -6.692690 -0.000000 0.000000
LeftFoot -20.298178 27.462327 -11.231776
LeftToeBase 27.955181 -0.000000 -0.000000
RightUpLeg -2.528229 -12.774513 1.296644
RightLeg -3.487481 -0.000000 0.000000
RightFoot -20.392782 -21.626972 15.952911
RightToeBase 25.557878 -0.000000 -0.000000
412
root 19.059795 35.427169 -21.431909 -170.666995 -2.733654 -178.059729
Spine -16.170624 -3.475318 1.634170
Head 4.900094 -0.752158 1.513698
LeftShoulder -20.987926 -11.953502 5.202926
LeftArm -44.882127 9.914480 -94.814290
LeftForeArm 7.040817 -0.000000 0.280007
LeftHand -6.124418 -0.000000 -35.169803
LeftHandThumb1 -26.253704 0.000000 33.147579
RightShoulder -22.611012 -21.258249 10.258065
RightArm -8.349634 -26.915969 84.533363
RightForeArm -33.175046 0.000000 9.708162
RightHand 2.324957 -0.000000 38.614199
RightHandThumb1 -24.326973 -0.000000 -32.862282
LeftUpLeg -0.850971 8.929273 3.196319
LeftLeg -6.711445 -0.000000 0.000000
LeftFoot -20.332799 27.463615 -11.195124
LeftToeBase 27.991568 -0.000000 -0.000000
RightUpLeg -2.398580 -12.794852 1.286687
RightLeg -3.496556 -0.000000 0.000000
RightFoot -20.410926 -21.589240 15.925741
RightToeBase 25.525519 -0.000000 -0.000000
413
root 19.060843 35.422677 -21.449204 -170.761780 -2.708252 -178.051971
Spine -16.310254 -3.472999 1.653565
Head 5.288393 -0.803863 1.510521
LeftShoulder -20.737371 -12.130704 4.918360
LeftArm -44.705640 10.413078 -95.264356
LeftForeArm 6.479301 -0.000000 0.323050
LeftHand -5.941240 0.000000 -34.744728
LeftHandThumb1 -26.253704 0.000000 33.147579
RightShoulder -22.402297 -21.149017 10.403157
RightArm -8.182326 -27.288759 84.398820
RightForeArm -32.567094 -0.000000 9.682981
RightHand 2.511636 -0.000000 38.166406
RightHandThumb1 -24.326973 -0.000000 -32.862282
LeftUpLeg -0.712180 8.955203 3.222981
LeftLeg -6.730215 -0.000000 0.000000
LeftFoot -20.357241 27.467636 -11.157429
LeftToeBase 28.007632 -0.000000 -0.000000
RightUpLeg -2.264114 -12.774487 1.264730
RightLeg -3.516182 -0.000000 0.000000
RightFoot -20.434217 -21.579933 15.885060
RightToeBase 25.552326 -0.000000 -0.000000
414
root 19.059504 35.419700 -21.462280 -170.840109 -2.671480 -178.045560
Spine -16.451981 -3.464306 1.670850
Head 5.664283 -0.826632 1.508533
LeftShoulder -20.553486 -12.223699 4.651368
LeftArm -44.401913 10.889589 -95.620156
LeftForeArm 5.782710 0.000000 0.374185
LeftHand -5.923533 0.000000 -34.288190
LeftHandThumb1 -26.253704 0.000000 33.147579
RightShoulder -22.189669 -21.118703 10.537224
RightArm -7.876230 -27.574938 84.199911
RightForeArm -31.878543 0.000000 9.542731
RightHand 2.838017 -0.000000 37.482514
RightHandThumb1 -24.326973 -0.000000 -32.862282
LeftUpLeg -0.605122 8.965144 3.239150
LeftLeg -6.726521 -0.000000 0.000000
LeftFoot -20.405878 27.499477 -11.155723
LeftToeBase 28.016606 -0.000000 -0.000000
RightUpLeg -2.169703 -12.737345 1.242153
RightLeg -3.505873 -0.000000 0.000000
RightFoot -20.467379 -21.575532 15.889807
RightToeBase 25.553262 -0.000000 -0.000000
415
root 19.059874 35.415891 -21.479342 -170.932146 -2.663821 -178.044139
Spine -16.583881 -3.516282 1.691843
Head 6.005231 -0.846979 1.527452
LeftShoulder -20.420603 -12.354248 4.445379
LeftArm -44.157027 11.378747 -95.985172
LeftForeArm 5.340620 -0.000000 0.327938
LeftHand -5.640441 -0.000000 -33.697095
LeftHandThumb1 -26.253704 0.000000 33.147579
RightShoulder -21.916003 -21.059617 10.597788
RightArm -7.647575 -27.831810 84.049169
RightForeArm -31.288541 -0.000000 9.412874
RightHand 3.096966 -0.000000 36.996024
RightHandThumb1 -24.326973 -0.000000 -32.862282
LeftUpLeg -0.473281 8.960591 3.259946
LeftLeg -6.743386 -0.000000 0.000000
LeftFoot -20.435754 27.508215 -11.138776
LeftToeBase 28.036960 -0.000000 -0.000000
RightUpLeg -2.039472 -12.737937 1.216755
RightLeg -3.518712 -0.000000 0.000000
RightFoot -20.492852 -21.577334 15.848032
RightToeBase 25.544634 -0.000000 -0.000000
416
root 19.061614 35.413268 -21.495455 -171.020401 -2.673684 -178.033348
Spine -16.716290 -3.556320 1.717010
Head 6.348996 -0.859770 1.529322
LeftShoulder -20.304664 -12.413961 4.224945
LeftArm -43.824624 11.956021 -96.357333
LeftForeArm 5.028540 -0.000000 0.184494
LeftHand -5.296559 0.000000 -32.958613
LeftHandThumb1 -26.253704 0.000000 33.147579
RightShoulder -21.707173 -21.014627 10.664666
RightArm -7.388189 -28.150552 83.899085
RightForeArm -30.793569 -0.000000 9.303469
RightHand 3.315593 -0.000000 36.371489
RightHandThumb1 -24.326973 -0.000000 -32.862282
LeftUpLeg -0.358287 8.918099 3.294828
LeftLeg -6.744000 -0.000000 0.000000
LeftFoot -20.458939 27.549841 -11.116702
LeftToeBase 28.027446 -0.000000 -0.000000
RightUpLeg -1.915164 -12.713903 1.202902
RightLeg -3.527699 -0.000000 0.000000
RightFoot -20.529976 -21.601510 15.868145
RightToeBase 25.542741 -0.000000 -0.000000
417
root 19.062723 35.410838 -21.511591 -171.102356 -2.664958 -178.035704
Spine -16.846603 -3.567779 1.727830
Head 6.673402 -0.931563 1.499889
LeftShoulder -20.183634 -12.480361 4.034199
LeftArm -43.496414 12.505240 -96.611327
LeftForeArm 4.359049 -0.000000 0.066134
LeftHand -5.290557 -0.000000 -32.417778
LeftHandThumb1 -26.253704 0.000000 33.147579
RightShoulder -21.553702 -21.030381 10.720868
RightArm -7.008845 -28.500186 83.717932
RightForeArm -30.182027 -0.000000 9.131065
RightHand 3.547188 -0.000000 35.544160
RightHandThumb1 -24.326973 -0.000000 -32.862282
LeftUpLeg -0.246034 8.875635 3.314456
LeftLeg -6.740764 -0.000000 0.000000
LeftFoot -20.502798 27.586041 -11.136619
LeftToeBase 28.020728 -0.000000 -0.000000
RightUpLeg -1.799929 -12.704046 1.179834
RightLeg -3.539557 -0.000000 0.000000
RightFoot -20.555100 -21.601129 15.869845
RightToeBase 25.519006 -0.000000 -0.000000
418
root 19.063560 35.408021 -21.529337 -171.200182 -2.621999 -178.040811
Spine -16.956377 -3.510540 1.703188
Head 6.972245 -1.082175 1.516158
LeftShoulder -20.025454 -12.541993 3.832202
LeftArm -43.151232 12.979845 -96.771832
LeftForeArm 3.868195 -0.000000 -0.140693
LeftHand -5.114769 -0.000000 -31.987271
LeftHandThumb1 -26.253704 0.000000 33.147579
RightShoulder -21.417503 -20.904665 10.756261
RightArm -6.841301 -28.825981 83.587257
RightForeArm -29.671533 -0.000000 9.064707
RightHand 3.902927 0.000000 34.950348
RightHandThumb1 -24.326973 -0.000000 -32.862282
LeftUpLeg -0.101730 8.858017 3.327976
LeftLeg -6.759316 -0.000000 0.000000
LeftFoot -20.519284 27.660010 -11.148565
LeftToeBase 27.998782 -0.000000 -0.000000
RightUpLeg -1.675389 -12.633027 1.142339
RightLeg -3.531625 -0.000000 0.000000
RightFoot -20.595194 -21.637047 15.851166
RightToeBase 25.563194 -0.000000 -0.000000
419
root 19.065958 35.405664 -21.548912 -171.312236 -2.595414 -178.050452
Spine -17.046612 -3.490974 1.679809
Head 7.273015 -1.090380 1.500258
LeftShoulder -19.916213 -12.497062 3.621354
LeftArm -42.684171 13.450504 -96.781974
LeftForeArm 3.175506 -0.000000 -0.340927
LeftHand -4.998730 0.000000 -31.169436
LeftHandThumb1 -26.253704 0.000000 33.147579
RightShoulder -21.273542 -20.787450 10.768364
RightArm -6.684187 -29.149862 83.413680
RightForeArm -29.097310 -0.000000 9.111720
RightHand 4.465474 -0.000000 34.201979
RightHandThumb1 -24.326973 -0.000000 -32.862282
LeftUpLeg 0.064592 8.758134 3.348958
LeftLeg -6.775921 -0.000000 0.000000
LeftFoot -20.569659 27.743419 -11.200729
LeftToeBase 27.978849 -0.000000 -0.000000
RightUpLeg -1.528907 -12.593119 1.102689
RightLeg -3.533319 -0.000000 0.000000
RightFoot -20.630772 -21.663500 15.834498
RightToeBase 25.570397 -0.000000 -0.000000
